<svg width="166" height="28" viewBox="0 0 166 28" fill="none" xmlns="http://www.w3.org/2000/svg">
<path d="M23.0644 0.343999V20H18.2764V8.212L13.8804 20H10.0164L5.59236 8.184V20H0.804359V0.343999H6.46036L11.9764 13.952L17.4364 0.343999H23.0644ZM42.4675 4.376L32.6675 27.42H27.5155L31.0995 19.468L24.7435 4.376H30.0915L33.7035 14.148L37.2875 4.376H42.4675ZM146.331 0.343999V20H141.543V0.343999H146.331ZM159.32 4.208C161.15 4.208 162.606 4.80533 163.688 6C164.79 7.176 165.34 8.8 165.34 10.872V20H160.58V11.516C160.58 10.4707 160.31 9.65867 159.768 9.08C159.227 8.50133 158.499 8.212 157.584 8.212C156.67 8.212 155.942 8.50133 155.4 9.08C154.859 9.65867 154.588 10.4707 154.588 11.516V20H149.8V4.376H154.588V6.448C155.074 5.75733 155.727 5.216 156.548 4.824C157.37 4.41333 158.294 4.208 159.32 4.208Z" fill="#23B1D1"/>
<path d="M66.4589 0.343999V20H61.6709V8.212L57.2749 20H53.4109L48.9869 8.184V20H44.1989V0.343999H49.8549L55.3709 13.952L60.8309 0.343999H66.4589ZM77.014 20.224C75.4833 20.224 74.102 19.8973 72.87 19.244C71.6567 18.5907 70.6953 17.6573 69.986 16.444C69.2953 15.2307 68.95 13.812 68.95 12.188C68.95 10.5827 69.3047 9.17333 70.014 7.96C70.7233 6.728 71.694 5.78533 72.926 5.132C74.158 4.47867 75.5393 4.152 77.07 4.152C78.6007 4.152 79.982 4.47867 81.214 5.132C82.446 5.78533 83.4167 6.728 84.126 7.96C84.8354 9.17333 85.19 10.5827 85.19 12.188C85.19 13.7933 84.826 15.212 84.098 16.444C83.3887 17.6573 82.4087 18.5907 81.158 19.244C79.926 19.8973 78.5447 20.224 77.014 20.224ZM77.014 16.08C77.9287 16.08 78.7033 15.744 79.338 15.072C79.9913 14.4 80.318 13.4387 80.318 12.188C80.318 10.9373 80.0007 9.976 79.366 9.304C78.75 8.632 77.9847 8.296 77.07 8.296C76.1367 8.296 75.362 8.632 74.746 9.304C74.13 9.95733 73.822 10.9187 73.822 12.188C73.822 13.4387 74.1207 14.4 74.718 15.072C75.334 15.744 76.0993 16.08 77.014 16.08ZM97.2501 4.208C99.0795 4.208 100.535 4.80533 101.618 6C102.719 7.176 103.27 8.8 103.27 10.872V20H98.5101V11.516C98.5101 10.4707 98.2395 9.65867 97.6981 9.08C97.1568 8.50133 96.4288 8.212 95.5141 8.212C94.5995 8.212 93.8715 8.50133 93.3301 9.08C92.7888 9.65867 92.5181 10.4707 92.5181 11.516V20H87.7301V4.376H92.5181V6.448C93.0035 5.75733 93.6568 5.216 94.4781 4.824C95.2995 4.41333 96.2235 4.208 97.2501 4.208ZM121.325 11.936C121.325 12.384 121.297 12.8507 121.241 13.336H110.405C110.48 14.3067 110.788 15.0533 111.329 15.576C111.889 16.08 112.571 16.332 113.373 16.332C114.568 16.332 115.399 15.828 115.865 14.82H120.961C120.7 15.8467 120.224 16.7707 119.533 17.592C118.861 18.4133 118.012 19.0573 116.985 19.524C115.959 19.9907 114.811 20.224 113.541 20.224C112.011 20.224 110.648 19.8973 109.453 19.244C108.259 18.5907 107.325 17.6573 106.653 16.444C105.981 15.2307 105.645 13.812 105.645 12.188C105.645 10.564 105.972 9.14533 106.625 7.932C107.297 6.71867 108.231 5.78533 109.425 5.132C110.62 4.47867 111.992 4.152 113.541 4.152C115.053 4.152 116.397 4.46933 117.573 5.104C118.749 5.73867 119.664 6.644 120.317 7.82C120.989 8.996 121.325 10.368 121.325 11.936ZM116.425 10.676C116.425 9.85467 116.145 9.20133 115.585 8.716C115.025 8.23067 114.325 7.988 113.485 7.988C112.683 7.988 112.001 8.22133 111.441 8.688C110.9 9.15467 110.564 9.81733 110.433 10.676H116.425ZM139.811 4.376L130.011 27.42H124.859L128.443 19.468L122.087 4.376H127.435L131.047 14.148L134.631 4.376H139.811Z" fill="#383D3B"/>
</svg>
